<svg width="507" height="36" viewBox="0 0 507 36" fill="none" xmlns="http://www.w3.org/2000/svg">
<path d="M25.4766 24.3594C25.0859 27.9531 23.7969 30.7031 21.6094 32.6094C19.4375 34.5156 16.5391 35.4688 12.9141 35.4688C10.3828 35.4688 8.14062 34.8359 6.1875 33.5703C4.25 32.3047 2.75 30.5156 1.6875 28.2031C0.625 25.875 0.0859375 23.2188 0.0703125 20.2344V15.8047C0.0703125 12.7734 0.601562 10.0859 1.66406 7.74219C2.72656 5.39844 4.25 3.59375 6.23438 2.32812C8.23438 1.04687 10.5312 0.40625 13.125 0.40625C16.7812 0.40625 19.6641 1.39844 21.7734 3.38281C23.8984 5.35156 25.1328 8.07812 25.4766 11.5625H22.5703C21.8516 5.76563 18.7031 2.86719 13.125 2.86719C10.0312 2.86719 7.5625 4.02344 5.71875 6.33594C3.89062 8.64844 2.97656 11.8438 2.97656 15.9219V20.0938C2.97656 24.0312 3.86719 27.1719 5.64844 29.5156C7.44531 31.8594 9.86719 33.0312 12.9141 33.0312C15.9297 33.0312 18.2031 32.3125 19.7344 30.875C21.2656 29.4219 22.2109 27.25 22.5703 24.3594H25.4766ZM54.9375 3.33594H43.2422V35H40.3594V3.33594H28.6875V0.875H54.9375V3.33594ZM85.0312 19.7891C85.0312 22.9297 84.4844 25.6875 83.3906 28.0625C82.3125 30.4375 80.7656 32.2656 78.75 33.5469C76.7344 34.8281 74.4062 35.4688 71.7656 35.4688C67.7812 35.4688 64.5625 34.0469 62.1094 31.2031C59.6562 28.3438 58.4297 24.4922 58.4297 19.6484V16.1328C58.4297 13.0234 58.9766 10.2734 60.0703 7.88281C61.1797 5.47656 62.7422 3.63281 64.7578 2.35156C66.7734 1.05469 69.0938 0.40625 71.7188 0.40625C74.3438 0.40625 76.6562 1.03906 78.6562 2.30469C80.6719 3.57031 82.2266 5.35937 83.3203 7.67188C84.4141 9.98438 84.9844 12.6641 85.0312 15.7109V19.7891ZM82.1484 16.0859C82.1484 11.9766 81.2188 8.75781 79.3594 6.42969C77.5 4.10156 74.9531 2.9375 71.7188 2.9375C68.5469 2.9375 66.0156 4.10938 64.125 6.45312C62.25 8.78125 61.3125 12.0391 61.3125 16.2266V19.7891C61.3125 23.8359 62.25 27.0469 64.125 29.4219C66 31.7812 68.5469 32.9609 71.7656 32.9609C75.0312 32.9609 77.5781 31.7969 79.4062 29.4688C81.2344 27.125 82.1484 23.8672 82.1484 19.6953V16.0859ZM114.727 0.875H117.609V35H114.727V5.79688L95.2969 35H92.3906V0.875H95.2969V30.0547L114.727 0.875ZM130.195 0.875L142.781 30.9922L155.414 0.875H159.258V35H156.375V20.1406L156.609 4.90625L143.906 35H141.68L129.023 5.02344L129.258 20.0469V35H126.375V0.875H130.195ZM193.125 19.7891C193.125 22.9297 192.578 25.6875 191.484 28.0625C190.406 30.4375 188.859 32.2656 186.844 33.5469C184.828 34.8281 182.5 35.4688 179.859 35.4688C175.875 35.4688 172.656 34.0469 170.203 31.2031C167.75 28.3438 166.523 24.4922 166.523 19.6484V16.1328C166.523 13.0234 167.07 10.2734 168.164 7.88281C169.273 5.47656 170.836 3.63281 172.852 2.35156C174.867 1.05469 177.188 0.40625 179.812 0.40625C182.438 0.40625 184.75 1.03906 186.75 2.30469C188.766 3.57031 190.32 5.35937 191.414 7.67188C192.508 9.98438 193.078 12.6641 193.125 15.7109V19.7891ZM190.242 16.0859C190.242 11.9766 189.312 8.75781 187.453 6.42969C185.594 4.10156 183.047 2.9375 179.812 2.9375C176.641 2.9375 174.109 4.10938 172.219 6.45312C170.344 8.78125 169.406 12.0391 169.406 16.2266V19.7891C169.406 23.8359 170.344 27.0469 172.219 29.4219C174.094 31.7812 176.641 32.9609 179.859 32.9609C183.125 32.9609 185.672 31.7969 187.5 29.4688C189.328 27.125 190.242 23.8672 190.242 19.6953V16.0859ZM224.555 24.3594C224.164 27.9531 222.875 30.7031 220.688 32.6094C218.516 34.5156 215.617 35.4688 211.992 35.4688C209.461 35.4688 207.219 34.8359 205.266 33.5703C203.328 32.3047 201.828 30.5156 200.766 28.2031C199.703 25.875 199.164 23.2188 199.148 20.2344V15.8047C199.148 12.7734 199.68 10.0859 200.742 7.74219C201.805 5.39844 203.328 3.59375 205.312 2.32812C207.312 1.04687 209.609 0.40625 212.203 0.40625C215.859 0.40625 218.742 1.39844 220.852 3.38281C222.977 5.35156 224.211 8.07812 224.555 11.5625H221.648C220.93 5.76563 217.781 2.86719 212.203 2.86719C209.109 2.86719 206.641 4.02344 204.797 6.33594C202.969 8.64844 202.055 11.8438 202.055 15.9219V20.0938C202.055 24.0312 202.945 27.1719 204.727 29.5156C206.523 31.8594 208.945 33.0312 211.992 33.0312C215.008 33.0312 217.281 32.3125 218.812 30.875C220.344 29.4219 221.289 27.25 221.648 24.3594H224.555ZM254.016 3.33594H242.32V35H239.438V3.33594H227.766V0.875H254.016V3.33594ZM262.664 15.6875H271.125C273.453 15.6875 275.469 16.0781 277.172 16.8594C278.875 17.625 280.172 18.7344 281.062 20.1875C281.969 21.625 282.422 23.3281 282.422 25.2969C282.422 28.3125 281.414 30.6875 279.398 32.4219C277.383 34.1406 274.594 35 271.031 35H259.781V0.875H262.664V15.6875ZM262.664 18.1484V32.5625H271.102C273.742 32.5625 275.805 31.9141 277.289 30.6172C278.773 29.3047 279.516 27.5156 279.516 25.25C279.516 23.0938 278.797 21.3828 277.359 20.1172C275.922 18.8359 273.906 18.1797 271.312 18.1484H262.664ZM326.18 35H323.297V3.33594H303.984V35H301.102V0.875H326.18V35ZM337.852 21.1016V35H334.969V0.875H346.594C350.141 0.875 352.938 1.78125 354.984 3.59375C357.047 5.40625 358.078 7.89844 358.078 11.0703C358.078 14.2734 357.086 16.75 355.102 18.5C353.133 20.2344 350.273 21.1016 346.523 21.1016H337.852ZM337.852 18.6641H346.594C349.391 18.6641 351.523 18 352.992 16.6719C354.461 15.3438 355.195 13.4922 355.195 11.1172C355.195 8.75781 354.461 6.88281 352.992 5.49219C351.539 4.08594 349.469 3.36719 346.781 3.33594H337.852V18.6641ZM389.766 19.7891C389.766 22.9297 389.219 25.6875 388.125 28.0625C387.047 30.4375 385.5 32.2656 383.484 33.5469C381.469 34.8281 379.141 35.4688 376.5 35.4688C372.516 35.4688 369.297 34.0469 366.844 31.2031C364.391 28.3438 363.164 24.4922 363.164 19.6484V16.1328C363.164 13.0234 363.711 10.2734 364.805 7.88281C365.914 5.47656 367.477 3.63281 369.492 2.35156C371.508 1.05469 373.828 0.40625 376.453 0.40625C379.078 0.40625 381.391 1.03906 383.391 2.30469C385.406 3.57031 386.961 5.35937 388.055 7.67188C389.148 9.98438 389.719 12.6641 389.766 15.7109V19.7891ZM386.883 16.0859C386.883 11.9766 385.953 8.75781 384.094 6.42969C382.234 4.10156 379.688 2.9375 376.453 2.9375C373.281 2.9375 370.75 4.10938 368.859 6.45312C366.984 8.78125 366.047 12.0391 366.047 16.2266V19.7891C366.047 23.8359 366.984 27.0469 368.859 29.4219C370.734 31.7812 373.281 32.9609 376.5 32.9609C379.766 32.9609 382.312 31.7969 384.141 29.4688C385.969 27.125 386.883 23.8672 386.883 19.6953V16.0859ZM415.875 18.6406H399.914V32.5625H418.266V35H397.031V0.875H418.148V3.33594H399.914V16.2031H415.875V18.6406ZM432.047 18.9922H427.359V35H424.477V0.875H427.359V16.5312H431.906L445.102 0.875H448.734L434.719 17.6562L449.766 35H446.18L432.047 18.9922ZM478.172 3.33594H466.477V35H463.594V3.33594H451.922V0.875H478.172V3.33594ZM500.25 25.4375H484.758L481.242 35H478.219L491.133 0.875H493.875L506.789 35H503.789L500.25 25.4375ZM485.648 22.9766H499.336L492.492 4.39062L485.648 22.9766Z" fill="black"/>
</svg>
